<svg version="1.1" id="Layer_1" xmlns="http://www.w3.org/2000/svg" xmlns:xlink="http://www.w3.org/1999/xlink" x="0px" y="0px"
	 width="100%" viewBox="0 0 500 500" enable-background="new 0 0 500 500" xml:space="preserve">
<path fill="#976EFB" opacity="1.000000" stroke="none" 
	d="
M199.644867,223.176453 
	C203.557724,219.210953 207.470581,215.245438 211.723175,211.602524 
	C212.371841,213.718460 212.905518,215.505707 212.954224,217.306076 
	C213.353455,232.066895 213.723953,246.829147 213.974304,261.593140 
	C214.111267,269.668945 214.059265,277.749603 213.977554,285.826935 
	C213.923065,291.214233 213.632416,296.598755 213.508514,301.985901 
	C213.369537,308.028778 213.245193,314.073151 213.230713,320.117126 
	C213.226074,322.053101 213.591263,323.989929 213.787247,325.926361 
	C213.843628,329.349091 213.900009,332.771790 213.659698,336.960052 
	C212.358887,344.887115 217.717850,351.060394 215.942215,358.672119 
	C214.451111,365.064148 215.180496,371.965271 214.829956,378.635895 
	C214.646912,382.119202 212.598282,383.030731 209.463226,382.122375 
	C205.878311,380.241638 202.293411,378.360901 198.913773,376.177063 
	C199.746033,373.863281 200.915207,371.853943 200.920166,369.841766 
	C201.025696,327.067444 201.054047,284.292664 200.940247,241.518433 
	C200.923981,235.403336 200.096771,229.290405 199.644867,223.176453 
z"/>
<path fill="#B965FD" opacity="1.000000" stroke="none" 
	d="
M252.221283,146.036072 
	C252.311951,144.302811 252.402618,142.569565 252.898239,140.241745 
	C253.146515,138.078796 252.989822,136.510406 252.833145,134.942017 
	C252.584427,132.538284 252.335693,130.134552 252.388306,127.095413 
	C253.754898,121.530563 252.328140,117.176422 249.610016,113.120407 
	C247.824875,108.093246 246.039719,103.066093 244.154144,97.318741 
	C242.794861,93.382408 241.761520,90.051697 240.204620,86.986969 
	C238.993866,84.603592 239.693329,84.014061 241.957825,84.004768 
	C241.957825,84.004768 242.016953,84.034653 242.076294,84.264648 
	C242.294724,84.750618 242.516785,84.927628 242.801804,85.025681 
	C250.402390,91.491470 258.002991,97.957253 265.333069,104.728851 
	C261.982178,105.157417 260.141510,106.140343 260.389557,109.847076 
	C261.081268,120.184402 261.642914,130.537323 261.893188,140.892838 
	C261.962524,143.763138 260.225128,146.667145 260.241699,149.550354 
	C260.322815,163.649399 260.577576,177.751160 261.037506,191.843262 
	C261.539886,207.236252 262.334564,222.619705 263.004883,238.372086 
	C263.033264,239.222382 263.058594,239.707901 263.083923,240.193436 
	C262.238007,241.378464 261.392120,242.563492 259.904022,243.929413 
	C258.227264,245.556259 257.192688,247.002228 256.158142,248.448196 
	C255.623917,249.230179 255.089706,250.012146 253.934875,250.951416 
	C252.154800,251.583923 250.995316,252.059128 248.997559,252.877884 
	C248.997559,249.284286 249.027679,246.352737 248.992661,243.421967 
	C248.776550,225.341476 247.992096,207.244156 248.547470,189.187820 
	C248.836227,179.799271 250.689896,170.461792 249.081390,161.026718 
	C249.122711,160.546570 249.164032,160.066437 249.712891,159.161118 
	C250.529114,156.831696 250.837799,154.927429 251.146500,153.023178 
	C251.160950,152.551315 251.175400,152.079453 251.666138,151.164642 
	C252.168716,149.159836 252.194992,147.597946 252.221283,146.036072 
z"/>
<path fill="#8873FD" opacity="1.000000" stroke="none" 
	d="
M177.045013,244.119812 
	C180.770752,240.397461 184.496490,236.675110 188.707260,233.140320 
	C190.123428,237.469467 191.817062,241.606430 191.842041,245.753464 
	C191.915665,257.975433 191.154358,270.200195 191.067947,282.426300 
	C191.019928,289.219452 191.934784,296.017761 191.927200,302.813202 
	C191.918854,310.275604 190.159821,317.919739 191.270218,325.161652 
	C193.614120,340.448517 189.633667,355.268341 189.520157,370.322174 
	C185.400787,367.489471 181.281418,364.656769 177.115723,361.148560 
	C180.871277,357.574158 181.010788,354.031860 179.283524,349.871613 
	C178.687317,348.435608 179.009689,346.594666 179.008636,344.938660 
	C178.996017,325.089783 179.001907,305.240875 179.002075,285.391998 
	C179.002167,274.324768 179.125183,263.255127 178.910599,252.192017 
	C178.858200,249.490250 177.696625,246.809967 177.045013,244.119812 
z"/>
<path fill="#C163FD" opacity="1.000000" stroke="none" 
	d="
M263.001831,238.007324 
	C262.334564,222.619705 261.539886,207.236252 261.037506,191.843262 
	C260.577576,177.751160 260.322815,163.649399 260.241699,149.550354 
	C260.225128,146.667145 261.962524,143.763138 261.893188,140.892838 
	C261.642914,130.537323 261.081268,120.184402 260.389557,109.847076 
	C260.141510,106.140343 261.982178,105.157417 265.439758,105.039490 
	C266.129639,105.248489 266.442291,105.452682 266.916626,106.195343 
	C267.614777,107.181343 268.151215,107.628868 268.687653,108.076393 
	C270.896149,110.435829 273.104645,112.795258 275.029938,115.491867 
	C273.351959,115.674240 271.957153,115.519424 269.183777,115.211601 
	C270.585663,117.548607 271.342255,118.797188 272.085785,120.053490 
	C272.641235,120.991989 273.652344,121.945396 273.642578,122.883644 
	C273.604248,126.569008 273.041321,130.250519 273.032257,133.934326 
	C272.970520,159.062592 273.039642,184.191208 272.967285,209.319427 
	C272.952332,214.508942 269.974091,220.028992 274.979187,224.542938 
	C275.065308,224.620651 275.001709,224.864456 275.007996,225.030746 
	C272.195770,228.517761 269.383514,232.004776 266.114746,235.956909 
	C265.502777,236.819824 265.347351,237.217621 265.191956,237.615402 
	C265.191956,237.615402 265.189606,237.931595 264.722412,237.957886 
	C263.837402,237.991898 263.419617,237.999603 263.001831,238.007324 
z"/>
<path fill="#9071FE" opacity="1.000000" stroke="none" 
	d="
M189.533997,370.310699 
	C189.633667,355.268341 193.614120,340.448517 191.270218,325.161652 
	C190.159821,317.919739 191.918854,310.275604 191.927200,302.813202 
	C191.934784,296.017761 191.019928,289.219452 191.067947,282.426300 
	C191.154358,270.200195 191.915665,257.975433 191.842041,245.753464 
	C191.817062,241.606430 190.123428,237.469467 189.006363,232.975647 
	C192.178772,229.451233 195.537125,226.279068 199.270172,223.141693 
	C200.096771,229.290405 200.923981,235.403336 200.940247,241.518433 
	C201.054047,284.292664 201.025696,327.067444 200.920166,369.841766 
	C200.915207,371.853943 199.746033,373.863281 198.739807,375.904968 
	C198.360550,375.935974 198.132919,375.991364 197.968048,375.565491 
	C197.006989,374.809082 196.210831,374.478516 195.414658,374.147949 
	C194.981018,373.999481 194.547379,373.851013 193.861206,373.218597 
	C193.061066,372.496460 192.513443,372.258240 191.965820,372.020020 
	C191.965820,372.020050 192.001541,372.000061 191.833496,371.807922 
	C191.359482,371.454315 191.053482,371.292816 190.747482,371.131317 
	C190.747482,371.131317 190.894806,371.112396 190.750641,370.938354 
	C190.265045,370.609528 189.923630,370.454773 189.582214,370.300018 
	C189.582214,370.300018 189.547852,370.299225 189.533997,370.310699 
z"/>
<path fill="#8075FC" opacity="1.000000" stroke="none" 
	d="
M176.742126,244.249756 
	C177.696625,246.809967 178.858200,249.490250 178.910599,252.192017 
	C179.125183,263.255127 179.002167,274.324768 179.002075,285.391998 
	C179.001907,305.240875 178.996017,325.089783 179.008636,344.938660 
	C179.009689,346.594666 178.687317,348.435608 179.283524,349.871613 
	C181.010788,354.031860 180.871277,357.574158 176.992569,360.836121 
	C172.299850,356.746918 167.683945,352.294617 163.204910,347.244049 
	C164.507416,345.210022 166.661133,343.792023 166.687332,342.335785 
	C166.980331,326.039093 167.006546,309.736420 166.975769,293.435577 
	C166.957382,283.701019 166.854279,273.960083 166.394745,264.240692 
	C166.334183,262.959473 163.930588,261.789001 162.612152,260.567261 
	C167.221176,255.171402 171.830215,249.775543 176.742126,244.249756 
z"/>
<path fill="#7577F9" opacity="1.000000" stroke="none" 
	d="
M162.618683,260.577942 
	C163.930588,261.789001 166.334183,262.959473 166.394745,264.240692 
	C166.854279,273.960083 166.957382,283.701019 166.975769,293.435577 
	C167.006546,309.736420 166.980331,326.039093 166.687332,342.335785 
	C166.661133,343.792023 164.507416,345.210022 163.113068,346.924988 
	C141.293594,323.814545 139.586548,293.850739 158.274445,266.013947 
	C159.289322,264.502197 160.421204,263.069000 161.930756,261.484070 
	C162.681091,261.220642 162.763748,260.965485 162.610825,260.603424 
	C162.610825,260.603424 162.625229,260.588593 162.618683,260.577942 
z"/>
<path fill="#A06CFD" opacity="1.000000" stroke="none" 
	d="
M213.956131,325.576843 
	C213.591263,323.989929 213.226074,322.053101 213.230713,320.117126 
	C213.245193,314.073151 213.369537,308.028778 213.508514,301.985901 
	C213.632416,296.598755 213.923065,291.214233 213.977554,285.826935 
	C214.059265,277.749603 214.111267,269.668945 213.974304,261.593140 
	C213.723953,246.829147 213.353455,232.066895 212.954224,217.306076 
	C212.905518,215.505707 212.371841,213.718460 212.042877,211.510483 
	C216.120331,206.762650 220.217804,202.429459 224.633118,198.382935 
	C225.477951,204.484970 226.364700,210.294388 226.461441,216.116928 
	C226.707321,230.914764 226.604782,245.718460 226.631195,260.519836 
	C226.644043,267.722748 226.633392,274.925720 226.633392,282.418457 
	C227.659760,282.286011 228.764236,282.143494 229.868729,282.000977 
	C226.674973,288.202118 222.776352,294.153534 220.467896,300.668365 
	C217.654877,308.607086 216.179153,317.019684 213.956131,325.576843 
z"/>
<path fill="#C760FB" opacity="1.000000" stroke="none" 
	d="
M275.306824,224.874176 
	C275.001709,224.864456 275.065308,224.620651 274.979187,224.542938 
	C269.974091,220.028992 272.952332,214.508942 272.967285,209.319427 
	C273.039642,184.191208 272.970520,159.062592 273.032257,133.934326 
	C273.041321,130.250519 273.604248,126.569008 273.642578,122.883644 
	C273.652344,121.945396 272.641235,120.991989 272.085785,120.053490 
	C271.342255,118.797188 270.585663,117.548607 269.183777,115.211601 
	C271.957153,115.519424 273.351959,115.674240 275.142029,115.828522 
	C280.099457,122.306496 284.661560,128.785004 288.770599,135.646851 
	C284.920502,136.208694 283.883606,138.151123 283.961090,141.341660 
	C284.101898,147.141754 284.011688,152.947769 283.996429,158.751266 
	C283.953857,174.975891 283.900360,191.200470 283.850525,207.629593 
	C284.944031,206.796295 286.596222,205.537247 288.248383,204.278198 
	C284.034149,211.091324 279.819885,217.904465 275.306824,224.874176 
z"/>
<path fill="#A86AFC" opacity="1.000000" stroke="none" 
	d="
M230.029358,281.939484 
	C228.764236,282.143494 227.659760,282.286011 226.633392,282.418457 
	C226.633392,274.925720 226.644043,267.722748 226.631195,260.519836 
	C226.604782,245.718460 226.707321,230.914764 226.461441,216.116928 
	C226.364700,210.294388 225.477951,204.484970 224.952423,198.267181 
	C228.781342,193.018585 232.608810,188.172409 236.933151,183.431885 
	C235.595062,189.534500 239.638351,194.776733 238.954544,201.219284 
	C237.438446,215.503311 238.920135,230.093506 238.952377,244.559341 
	C238.966995,251.115189 238.343887,257.670746 238.243484,264.230042 
	C238.223694,265.523010 239.273499,266.832306 239.858551,268.148590 
	C239.887070,268.163086 239.936142,268.122040 239.936157,268.122040 
	C239.154633,269.297607 238.373093,270.473175 236.967056,271.904663 
	C235.966217,272.860138 235.589859,273.559662 235.213501,274.259216 
	C235.213516,274.259216 235.162872,274.127594 234.954895,274.302063 
	C234.548843,274.869873 234.350769,275.263245 234.152679,275.656616 
	C234.152679,275.656616 234.203186,275.916901 233.742645,276.045349 
	C232.241470,277.960968 231.200821,279.748138 230.160187,281.535309 
	C230.160172,281.535309 230.189972,281.877991 230.029358,281.939484 
z"/>
<path fill="#AF66F9" opacity="1.000000" stroke="none" 
	d="
M239.830048,268.134094 
	C239.273499,266.832306 238.223694,265.523010 238.243484,264.230042 
	C238.343887,257.670746 238.966995,251.115189 238.952377,244.559341 
	C238.920135,230.093506 237.438446,215.503311 238.954544,201.219284 
	C239.638351,194.776733 235.595062,189.534500 237.227844,183.273834 
	C240.892059,175.855286 244.758469,168.700424 248.853119,161.286133 
	C250.689896,170.461792 248.836227,179.799271 248.547470,189.187820 
	C247.992096,207.244156 248.776550,225.341476 248.992661,243.421967 
	C249.027679,246.352737 248.997559,249.284286 248.997559,252.877884 
	C250.995316,252.059128 252.154800,251.583923 253.664536,251.058899 
	C249.532898,256.588226 245.051025,262.167358 240.220825,267.944122 
	C239.872513,268.141754 239.830048,268.134094 239.830048,268.134094 
z"/>
<path fill="#EC56FD" opacity="1.000000" stroke="none" 
	d="
M336.681458,233.854599 
	C336.664124,234.356613 336.646790,234.858643 336.178467,235.880508 
	C334.105164,243.241226 332.482819,250.082108 330.860413,256.922974 
	C330.771820,257.426147 330.683197,257.929291 330.092285,258.868988 
	C328.371185,261.524139 327.152344,263.742767 325.606689,265.886169 
	C321.637848,264.335510 322.852753,261.346619 322.972229,258.629181 
	C323.519897,246.172577 324.024872,233.713974 324.471649,221.253448 
	C324.497345,220.536514 324.021362,219.669724 323.526154,219.087723 
	C320.646912,215.703781 321.266113,212.282623 322.675476,208.425262 
	C323.742920,205.503769 323.760864,202.198837 324.245819,199.064529 
	C324.240143,198.590240 324.234467,198.115967 324.714508,197.149323 
	C326.848602,190.042953 328.813782,183.419815 324.632965,176.973816 
	C324.468170,176.532181 324.303345,176.090546 324.412231,175.156235 
	C325.131134,174.092438 325.576385,173.521317 326.276978,172.980347 
	C326.873077,173.042267 327.213806,173.074051 327.554565,173.105820 
	C327.554565,173.105820 327.864349,173.264755 327.857849,173.736053 
	C327.904602,174.801910 327.957825,175.396500 328.159912,176.202881 
	C328.761963,176.643372 329.215179,176.872070 329.668396,177.100769 
	C329.668396,177.100769 329.917206,177.207977 329.891968,177.651794 
	C330.417572,179.097412 330.968353,180.099197 331.519135,181.100983 
	C331.665802,181.216995 331.812439,181.333023 332.107452,181.620941 
	C332.255859,181.792847 332.209076,181.681656 332.209076,181.681656 
	C332.348022,182.223373 332.486969,182.765076 332.514587,183.994934 
	C335.931702,197.076263 337.562805,209.694748 336.977539,222.588089 
	C336.807251,226.340347 336.776306,230.098923 336.681458,233.854599 
z"/>
<path fill="#AF66F9" opacity="1.000000" stroke="none" 
	d="
M270.598358,333.992676 
	C263.997192,345.319550 261.247864,357.533875 261.519348,371.318359 
	C259.792694,369.580139 257.854034,368.004761 256.373962,366.077209 
	C247.084747,353.979462 246.077438,340.113495 248.235580,325.723816 
	C250.245178,312.324524 255.723846,300.288727 263.663361,289.387421 
	C261.911469,293.602295 259.860321,297.613373 257.659363,301.917480 
	C262.887390,303.662292 262.697144,306.757446 261.098297,310.386200 
	C260.658783,311.383789 260.370331,312.567383 260.425293,313.644592 
	C260.893311,322.814026 261.444885,331.979279 262.003571,341.143829 
	C262.091583,342.587646 262.341217,344.021637 262.658020,346.627441 
	C265.831329,341.578033 268.214844,337.785370 270.598358,333.992676 
z"/>
<path fill="#F152F7" opacity="1.000000" stroke="none" 
	d="
M340.022217,300.006989 
	C342.850708,290.152863 343.805908,280.194061 341.119263,269.480835 
	C359.950287,288.558838 360.525269,318.636810 342.381531,340.907257 
	C340.887848,339.299286 339.192871,337.491791 339.390137,335.922058 
	C340.058655,330.603119 335.809174,325.533661 338.748077,320.181000 
	C338.894806,319.913788 338.421326,319.293060 338.214966,318.846954 
	C336.192810,314.475372 336.537048,310.408051 339.053650,306.198944 
	C340.047760,304.536285 339.738190,302.094177 340.022217,300.006989 
z"/>
<path fill="#CE5EFB" opacity="1.000000" stroke="none" 
	d="
M288.219299,204.278503 
	C286.596222,205.537247 284.944031,206.796295 283.850525,207.629593 
	C283.900360,191.200470 283.953857,174.975891 283.996429,158.751266 
	C284.011688,152.947769 284.101898,147.141754 283.961090,141.341660 
	C283.883606,138.151123 284.920502,136.208694 288.720093,136.014008 
	C298.143066,152.587784 302.763641,169.748016 295.389954,188.831329 
	C294.548645,190.403610 294.231018,191.539444 293.913391,192.675278 
	C293.111298,194.629868 292.309204,196.584473 291.032410,198.998199 
	C290.415009,199.843262 290.272369,200.229202 290.129700,200.615128 
	C290.129700,200.615128 290.226288,200.870514 289.766022,201.032196 
	C288.950287,202.220779 288.594818,203.247681 288.239349,204.274597 
	C288.239349,204.274597 288.190186,204.278824 288.219299,204.278503 
z"/>
<path fill="#DB5BFC" opacity="1.000000" stroke="none" 
	d="
M304.923737,294.668396 
	C304.109528,295.656921 303.295319,296.645447 301.992859,297.853760 
	C301.221802,298.232697 301.057404,298.472107 301.011444,298.791748 
	C300.874023,299.036407 300.736572,299.281097 300.114655,299.709381 
	C299.452545,299.886597 299.276611,299.865814 298.901062,299.578186 
	C297.154968,298.032532 295.310913,296.830414 297.731934,294.669983 
	C298.198639,294.253510 298.776489,293.488861 298.687927,292.995117 
	C297.645721,287.183624 303.825623,281.588318 299.197693,275.647522 
	C298.778046,275.108826 298.914368,274.014252 299.020355,273.207764 
	C300.171204,264.452728 296.260864,255.710403 299.081848,246.728775 
	C299.478302,245.712082 299.758118,244.924347 300.037964,244.136627 
	C300.420105,243.535950 300.802246,242.935272 301.562500,242.003998 
	C301.940643,241.673386 301.973846,241.777420 301.973846,241.777420 
	C301.973846,241.777420 302.098175,241.330460 302.555878,241.134613 
	C303.341644,240.345703 303.669708,239.752609 303.997803,239.159546 
	C304.409027,238.502289 304.820251,237.845047 305.603821,236.964874 
	C305.976166,236.741959 305.994995,236.575729 305.994995,236.575729 
	C306.147278,236.236374 306.299561,235.897018 306.646179,235.091797 
	C306.840576,234.625931 306.700043,234.723740 306.700043,234.723740 
	C306.910706,234.563126 307.121399,234.402496 307.600281,233.998718 
	C307.868469,233.755585 307.759979,233.864655 307.759979,233.864655 
	C307.878540,233.706711 307.997070,233.548782 308.596680,233.238876 
	C309.372345,233.034851 309.668610,232.995956 310.183105,233.230072 
	C310.852325,234.154572 311.673035,234.805206 311.698975,235.486084 
	C311.888885,240.475281 312.085205,245.474457 311.966583,250.463058 
	C311.704224,261.498535 313.742554,272.656494 310.344238,283.555878 
	C310.255402,283.840851 311.420685,284.516785 311.836609,285.300903 
	C311.140045,286.779480 310.608002,287.967560 310.075958,289.155609 
	C309.964691,289.381378 309.853424,289.607178 309.456726,290.026825 
	C309.171265,290.220642 309.252716,290.114166 309.252716,290.114166 
	C309.138550,290.323364 309.024353,290.532532 308.344910,291.018433 
	C307.525848,291.554321 307.272034,291.813477 307.018188,292.072632 
	C306.813232,292.286499 306.604889,292.496979 306.009399,292.996643 
	C305.391663,293.748932 305.157715,294.208649 304.923737,294.668396 
z"/>
<path fill="#C163FD" opacity="1.000000" stroke="none" 
	d="
M270.801147,333.831055 
	C268.214844,337.785370 265.831329,341.578033 262.658020,346.627441 
	C262.341217,344.021637 262.091583,342.587646 262.003571,341.143829 
	C261.444885,331.979279 260.893311,322.814026 260.425293,313.644592 
	C260.370331,312.567383 260.658783,311.383789 261.098297,310.386200 
	C262.697144,306.757446 262.887390,303.662292 257.659363,301.917480 
	C259.860321,297.613373 261.911469,293.602295 263.946381,289.214966 
	C263.965881,288.664764 264.001587,288.490814 264.563843,288.086151 
	C268.055634,284.235474 271.020813,280.615509 274.056854,277.392456 
	C274.404449,279.403259 274.895416,281.013885 274.920166,282.631592 
	C275.017212,288.975616 275.025116,295.322479 274.955353,301.667084 
	C274.887665,307.821991 274.574341,313.976868 274.653351,320.128082 
	C274.665833,321.102448 276.178375,322.057495 276.877075,323.278656 
	C276.455750,324.423065 276.154755,325.310303 275.853760,326.197540 
	C275.789825,326.396484 275.725830,326.595459 275.371887,327.007568 
	C275.081970,327.220734 274.978333,327.392548 274.978333,327.392548 
	C274.978333,327.392548 274.943085,327.753754 274.464172,327.926147 
	C273.015411,329.784241 272.045593,331.470001 271.075775,333.155762 
	C271.051819,333.326996 271.027893,333.498199 270.801147,333.831055 
z"/>
<path fill="#E057F8" opacity="1.000000" stroke="none" 
	d="
M312.001129,285.010406 
	C311.420685,284.516785 310.255402,283.840851 310.344238,283.555878 
	C313.742554,272.656494 311.704224,261.498535 311.966583,250.463058 
	C312.085205,245.474457 311.888885,240.475281 311.698975,235.486084 
	C311.673035,234.805206 310.852325,234.154572 310.197845,233.000854 
	C310.004730,232.056046 310.013367,231.600281 310.022003,231.144531 
	C310.115479,230.897339 310.208923,230.650162 310.824463,230.067596 
	C311.575134,229.192169 311.803711,228.652161 312.032288,228.112152 
	C312.487518,227.211441 312.942749,226.310730 313.946106,224.982208 
	C315.007446,223.208176 315.520630,221.861954 316.033875,220.515717 
	C318.640564,213.572952 321.247253,206.630188 324.049896,199.375977 
	C323.760864,202.198837 323.742920,205.503769 322.675476,208.425262 
	C321.266113,212.282623 320.646912,215.703781 323.526154,219.087723 
	C324.021362,219.669724 324.497345,220.536514 324.471649,221.253448 
	C324.024872,233.713974 323.519897,246.172577 322.972229,258.629181 
	C322.852753,261.346619 321.637848,264.335510 325.619720,266.129242 
	C325.934143,266.929443 325.908722,267.411407 325.883301,267.893341 
	C325.843201,268.101837 325.803101,268.310333 325.234131,268.838745 
	C323.143829,271.756866 321.582367,274.355103 320.020905,276.953308 
	C319.902283,277.265808 319.783691,277.578278 319.123444,278.106506 
	C318.054321,279.200836 317.526825,280.079437 316.999329,280.958069 
	C316.864319,281.258942 316.729340,281.559845 316.062988,282.078918 
	C314.354797,283.201508 313.177979,284.105957 312.001129,285.010406 
z"/>
<path fill="#CE5EFB" opacity="1.000000" stroke="none" 
	d="
M298.965179,246.957733 
	C296.260864,255.710403 300.171204,264.452728 299.020355,273.207764 
	C298.914368,274.014252 298.778046,275.108826 299.197693,275.647522 
	C303.825623,281.588318 297.645721,287.183624 298.687927,292.995117 
	C298.776489,293.488861 298.198639,294.253510 297.731934,294.669983 
	C295.310913,296.830414 297.154968,298.032532 298.858337,299.826019 
	C299.016846,300.326385 299.005157,300.825745 299.005157,300.825745 
	C298.864960,301.095795 298.724792,301.365814 298.390167,301.985962 
	C298.195679,302.336090 298.359070,302.219604 298.359070,302.219604 
	C298.139709,302.371124 297.920349,302.522675 297.508423,302.955292 
	C297.315918,303.236389 297.534790,303.114380 297.534790,303.114380 
	C296.513458,303.975037 295.492126,304.835724 293.967224,305.939270 
	C293.190430,306.370483 293.009338,306.625214 292.920410,306.946259 
	C292.815979,307.191803 292.711517,307.437347 292.406372,307.971069 
	C292.205750,308.259247 292.401825,308.248962 292.401825,308.248962 
	C291.865265,308.706665 291.328674,309.164337 290.483704,309.984802 
	C290.175354,310.347565 290.275696,310.285828 290.275696,310.285828 
	C290.077209,310.429413 289.878693,310.572968 289.253967,310.510254 
	C286.628662,308.045258 284.936066,305.793427 287.404144,302.545929 
	C287.856354,301.950867 287.100128,300.447205 286.920380,299.359863 
	C286.627960,297.590759 286.096191,295.817108 286.110168,294.048889 
	C286.181976,284.993958 286.448456,275.940186 286.447174,266.886017 
	C286.447083,266.254883 284.829346,265.623932 283.983643,264.684265 
	C284.010010,263.963837 284.016632,263.552063 284.023224,263.140320 
	C284.133698,262.866180 284.244171,262.592010 284.574799,261.990051 
	C284.794952,261.662231 284.681335,261.719482 284.681335,261.719482 
	C285.391266,260.980682 286.101166,260.241882 287.426514,259.213562 
	C289.068878,257.533356 290.095825,256.142731 291.122803,254.752090 
	C291.196869,254.561447 291.270905,254.370804 291.564850,254.006409 
	C291.784729,253.832657 291.647675,253.814728 291.647675,253.814728 
	C291.819580,253.628677 291.991516,253.442642 292.757568,252.999359 
	C293.905914,251.895081 294.460052,251.048019 295.014221,250.200989 
	C295.739044,249.207779 296.463837,248.214569 297.791992,247.073593 
	C298.585297,246.936447 298.775238,246.947083 298.965179,246.957733 
z"/>
<path fill="#C760FB" opacity="1.000000" stroke="none" 
	d="
M283.963867,264.992920 
	C284.829346,265.623932 286.447083,266.254883 286.447174,266.886017 
	C286.448456,275.940186 286.181976,284.993958 286.110168,294.048889 
	C286.096191,295.817108 286.627960,297.590759 286.920380,299.359863 
	C287.100128,300.447205 287.856354,301.950867 287.404144,302.545929 
	C284.936066,305.793427 286.628662,308.045258 288.910400,310.640656 
	C288.884460,311.237396 288.775940,311.497406 288.417328,312.042053 
	C288.167236,312.326721 288.271271,312.212402 288.271271,312.212402 
	C288.096832,312.398499 287.922394,312.584625 287.474152,312.981262 
	C287.200378,313.191772 287.311951,313.198914 287.311951,313.198914 
	C287.125366,313.374268 286.938782,313.549591 286.213135,313.973633 
	C285.449890,314.563904 285.225739,314.905457 285.001617,315.247040 
	C284.919281,315.437866 284.836945,315.628723 284.242554,316.085571 
	C283.552002,316.650391 283.373444,316.949188 283.194855,317.247986 
	C283.194855,317.247986 283.136871,317.143921 282.940735,317.244629 
	C282.514282,317.599640 282.283936,317.853912 282.053619,318.108215 
	C281.355530,319.020813 280.657440,319.933411 279.596375,321.011230 
	C279.233368,321.176422 279.130402,321.331818 279.130402,321.331818 
	C278.894073,321.710968 278.657776,322.090149 277.968079,322.743347 
	C277.342255,323.018768 277.169830,323.020111 276.997406,323.021484 
	C276.178375,322.057495 274.665833,321.102448 274.653351,320.128082 
	C274.574341,313.976868 274.887665,307.821991 274.955353,301.667084 
	C275.025116,295.322479 275.017212,288.975616 274.920166,282.631592 
	C274.895416,281.013885 274.404449,279.403259 274.212524,277.114349 
	C274.903534,275.126129 275.509766,273.812927 276.115967,272.499756 
	C276.115967,272.499756 276.147095,272.186768 276.605652,272.048370 
	C278.338409,270.220428 279.612671,268.530914 280.886902,266.841370 
	C280.948608,266.659393 281.010315,266.477386 281.573029,266.098572 
	C282.703979,265.598785 283.333923,265.295868 283.963867,264.992920 
z"/>
<path fill="#EC56FD" opacity="1.000000" stroke="none" 
	d="
M339.779938,300.248444 
	C339.738190,302.094177 340.047760,304.536285 339.053650,306.198944 
	C336.537048,310.408051 336.192810,314.475372 338.214966,318.846954 
	C338.421326,319.293060 338.894806,319.913788 338.748077,320.181000 
	C335.809174,325.533661 340.058655,330.603119 339.390137,335.922058 
	C339.192871,337.491791 340.887848,339.299286 342.114441,341.080811 
	C339.407379,344.452637 336.301575,347.741486 332.504822,351.098175 
	C330.662201,352.267181 329.510590,353.368347 328.359009,354.469482 
	C328.358978,354.469482 328.123230,354.167908 327.888458,354.154572 
	C324.798889,353.279510 323.326813,351.859924 325.067444,348.703094 
	C325.679932,347.592346 326.102722,346.139771 325.978119,344.907349 
	C325.683533,341.993683 324.464478,339.091034 324.608429,336.233765 
	C324.855988,331.319489 325.857269,326.443207 326.542175,321.550964 
	C326.542175,321.550964 326.933380,321.850739 326.903290,321.741699 
	C326.873199,321.632629 327.213379,321.408325 327.213379,321.408325 
	C327.213379,321.408325 327.043762,321.000854 327.043762,321.000854 
	C331.208374,314.163879 335.373016,307.326874 339.779938,300.248444 
z"/>
<path fill="#C760FB" opacity="1.000000" stroke="none" 
	d="
M303.565887,369.932373 
	C293.176025,377.404114 283.365326,385.475647 275.851440,397.843231 
	C274.590607,376.449341 282.961395,361.168335 298.226837,349.210022 
	C297.324463,351.717407 296.572479,354.336243 294.907196,356.085785 
	C291.524292,359.639832 291.513184,363.340515 295.709900,366.485809 
	C294.592621,367.989777 293.478485,369.489563 292.364319,370.989380 
	C292.581390,371.539398 292.798462,372.089447 293.015564,372.639496 
	C296.532349,371.737122 300.049103,370.834747 303.565887,369.932373 
z"/>
<path fill="#A06CFD" opacity="1.000000" stroke="none" 
	d="
M209.683075,382.404266 
	C212.598282,383.030731 214.646912,382.119202 214.829956,378.635895 
	C215.180496,371.965271 214.451111,365.064148 215.942215,358.672119 
	C217.717850,351.060394 212.358887,344.887115 213.552094,337.415710 
	C215.890350,351.339294 222.805923,363.214722 231.952057,374.691711 
	C231.283173,379.235291 230.512589,383.044769 230.055588,386.891479 
	C229.828064,388.806641 230.094040,390.722137 227.225143,390.198242 
	C221.451065,387.694244 215.677002,385.190216 209.683075,382.404266 
z"/>
<path fill="#DB5BFC" opacity="1.000000" stroke="none" 
	d="
M303.702789,369.948303 
	C300.049103,370.834747 296.532349,371.737122 293.015564,372.639496 
	C292.798462,372.089447 292.581390,371.539398 292.364319,370.989380 
	C293.478485,369.489563 294.592621,367.989777 295.709900,366.485809 
	C291.513184,363.340515 291.524292,359.639832 294.907196,356.085785 
	C296.572479,354.336243 297.324463,351.717407 298.548859,349.133698 
	C298.608002,348.775452 298.618225,348.855743 298.900696,348.714294 
	C299.406921,348.252380 299.630676,347.931885 299.854431,347.611389 
	C299.854431,347.611389 300.043762,347.186951 300.593872,347.092468 
	C303.295868,344.843201 305.447754,342.688385 307.599640,340.533600 
	C307.599640,340.533600 307.641876,340.633820 307.863739,340.568115 
	C308.279327,340.202271 308.473053,339.902130 308.666779,339.601990 
	C308.666779,339.601990 308.696533,339.716431 308.954224,339.606995 
	C309.474579,339.151093 309.737213,338.804657 309.999847,338.458252 
	C309.999847,338.458252 310.070221,338.084747 310.444885,338.438293 
	C311.262329,342.999542 311.751617,347.203033 312.134308,351.416229 
	C312.485229,355.280060 312.721252,359.154388 312.998169,363.284973 
	C312.956146,363.892731 312.923889,364.239563 312.891632,364.586426 
	C312.891632,364.586426 312.653778,364.964325 312.486877,365.036865 
	C312.320007,365.109406 312.439392,365.135223 312.439392,365.135254 
	C312.114380,365.303528 311.789368,365.471802 310.930695,365.819885 
	C310.397064,365.999695 310.440216,365.983521 310.440216,365.983521 
	C309.992767,366.297058 309.545349,366.610565 308.348389,367.027191 
	C306.371216,367.986633 305.143555,368.842957 303.915894,369.699310 
	C303.915894,369.699310 303.839691,369.964203 303.702789,369.948303 
z"/>
<path fill="#E057F8" opacity="1.000000" stroke="none" 
	d="
M313.007904,363.024078 
	C312.721252,359.154388 312.485229,355.280060 312.134308,351.416229 
	C311.751617,347.203033 311.262329,342.999542 310.632996,338.411316 
	C310.446442,338.030792 310.483063,338.050537 310.771393,337.907288 
	C311.308258,337.405212 311.556793,337.046387 311.805328,336.687592 
	C311.805328,336.687592 311.816833,336.809814 312.019135,336.732483 
	C312.471832,336.401978 312.722229,336.148773 312.972595,335.895569 
	C317.294495,331.208649 321.616394,326.521698 326.240234,321.692871 
	C325.857269,326.443207 324.855988,331.319489 324.608429,336.233765 
	C324.464478,339.091034 325.683533,341.993683 325.978119,344.907349 
	C326.102722,346.139771 325.679932,347.592346 325.067444,348.703094 
	C323.326813,351.859924 324.798889,353.279510 328.022644,354.291077 
	C324.242554,357.249481 320.093506,360.058075 315.252502,362.960754 
	C314.042969,363.044525 313.525452,363.034302 313.007904,363.024078 
z"/>
<path fill="#AF66F9" opacity="1.000000" stroke="none" 
	d="
M227.468338,390.479980 
	C230.094040,390.722137 229.828064,388.806641 230.055588,386.891479 
	C230.512589,383.044769 231.283173,379.235291 232.026657,375.014282 
	C239.654053,382.834778 248.776047,389.623627 255.401733,398.644531 
	C254.961868,399.254059 254.522003,399.863556 254.082138,400.473053 
	C245.291946,397.235931 236.501740,393.998810 227.468338,390.479980 
z"/>
<path fill="#976EFB" opacity="1.000000" stroke="none" 
	d="
M241.929550,83.672745 
	C239.693329,84.014061 238.993866,84.603592 240.204620,86.986969 
	C241.761520,90.051697 242.794861,93.382408 244.040894,96.939865 
	C240.571884,92.479530 237.059036,87.717209 233.686432,82.857559 
	C232.266846,80.812042 231.143463,78.560982 229.885437,76.403358 
	C230.341263,76.000946 230.797089,75.598541 231.252899,75.196129 
	C234.802368,77.910995 238.351822,80.625854 241.929550,83.672745 
z"/>
<path fill="#C760FB" opacity="1.000000" stroke="none" 
	d="
M336.887939,233.533401 
	C336.776306,230.098923 336.807251,226.340347 336.977539,222.588089 
	C337.562805,209.694748 335.931702,197.076263 332.559509,184.412689 
	C338.461243,197.867844 338.520538,212.279221 337.815002,226.772964 
	C337.710205,228.925964 337.341156,231.066116 336.887939,233.533401 
z"/>
<path fill="#C760FB" opacity="1.000000" stroke="none" 
	d="
M331.116364,256.690247 
	C332.482819,250.082108 334.105164,243.241226 336.010345,236.219681 
	C334.652863,242.845169 333.012573,249.651352 331.116364,256.690247 
z"/>
<path fill="#E057F8" opacity="1.000000" stroke="none" 
	d="
M324.544617,177.387573 
	C328.813782,183.419815 326.848602,190.042953 324.899872,196.840012 
	C324.551758,190.615814 324.504028,184.208557 324.544617,177.387573 
z"/>
<path fill="#AF66F9" opacity="1.000000" stroke="none" 
	d="
M275.840057,272.640320 
	C275.509766,273.812927 274.903534,275.126129 274.141663,276.717407 
	C271.020813,280.615509 268.055634,284.235474 264.783813,287.935913 
	C268.172852,282.937866 271.868500,277.859344 275.840057,272.640320 
z"/>
<path fill="#C760FB" opacity="1.000000" stroke="none" 
	d="
M327.518555,172.771698 
	C327.213806,173.074051 326.873077,173.042267 326.221588,172.666748 
	C324.635834,171.461823 323.360779,170.600647 322.085754,169.739471 
	C321.961884,167.994385 321.838043,166.249313 321.714203,164.504227 
	C321.448975,164.672852 321.183777,164.841476 320.918549,165.010101 
	C323.106567,167.485931 325.294556,169.961746 327.518555,172.771698 
z"/>
<path fill="#AF66F9" opacity="1.000000" stroke="none" 
	d="
M249.698486,113.532028 
	C252.328140,117.176422 253.754898,121.530563 252.474701,126.703873 
	C251.435501,122.613045 250.611221,118.278351 249.698486,113.532028 
z"/>
<path fill="#C760FB" opacity="1.000000" stroke="none" 
	d="
M307.289337,340.655945 
	C305.447754,342.688385 303.295868,344.843201 300.812378,347.013397 
	C302.646881,344.945312 304.812958,342.861816 307.289337,340.655945 
z"/>
<path fill="#C760FB" opacity="1.000000" stroke="none" 
	d="
M326.109528,267.752411 
	C325.908722,267.411407 325.934143,266.929443 325.946533,266.204468 
	C327.152344,263.742767 328.371185,261.524139 329.839661,259.160339 
	C328.838104,261.880646 327.586945,264.746063 326.109528,267.752411 
z"/>
<path fill="#C760FB" opacity="1.000000" stroke="none" 
	d="
M320.305359,276.810791 
	C321.582367,274.355103 323.143829,271.756866 324.982178,269.033600 
	C323.702637,271.495117 322.146240,274.081696 320.305359,276.810791 
z"/>
<path fill="#C760FB" opacity="1.000000" stroke="none" 
	d="
M311.836609,285.300903 
	C313.177979,284.105957 314.354797,283.201508 315.825684,282.175262 
	C314.311676,284.340332 312.503632,286.627228 310.385803,289.034851 
	C310.608002,287.967560 311.140045,286.779480 311.836609,285.300903 
z"/>
<path fill="#E057F8" opacity="1.000000" stroke="none" 
	d="
M322.067688,170.102600 
	C323.360779,170.600647 324.635834,171.461823 325.966248,172.636597 
	C325.576385,173.521317 325.131134,174.092438 324.449188,174.800995 
	C323.491516,173.447525 322.770569,171.956619 322.067688,170.102600 
z"/>
<path fill="#AF66F9" opacity="1.000000" stroke="none" 
	d="
M280.591125,266.968170 
	C279.612671,268.530914 278.338409,270.220428 276.755859,272.001801 
	C277.730164,270.427429 279.012756,268.761200 280.591125,266.968170 
z"/>
<path fill="#AF66F9" opacity="1.000000" stroke="none" 
	d="
M271.352539,332.994324 
	C272.045593,331.470001 273.015411,329.784241 274.300201,328.003845 
	C273.619843,329.550385 272.624573,331.191620 271.352539,332.994324 
z"/>
<path fill="#A06CFD" opacity="1.000000" stroke="none" 
	d="
M230.457550,281.363586 
	C231.200821,279.748138 232.241470,277.960968 233.617981,276.090393 
	C232.887558,277.735321 231.821243,279.463593 230.457550,281.363586 
z"/>
<path fill="#AF66F9" opacity="1.000000" stroke="none" 
	d="
M250.985748,153.331726 
	C250.837799,154.927429 250.529114,156.831696 249.946182,158.877716 
	C250.056305,157.226410 250.440659,155.433334 250.985748,153.331726 
z"/>
<path fill="#AF66F9" opacity="1.000000" stroke="none" 
	d="
M290.857635,254.850906 
	C290.095825,256.142731 289.068878,257.533356 287.749237,259.004578 
	C288.501892,257.706665 289.547180,256.328186 290.857635,254.850906 
z"/>
<path fill="#AF66F9" opacity="1.000000" stroke="none" 
	d="
M252.694336,135.282150 
	C252.989822,136.510406 253.146515,138.078796 253.047302,139.832367 
	C252.712799,138.552444 252.634171,137.087372 252.694336,135.282150 
z"/>
<path fill="#AF66F9" opacity="1.000000" stroke="none" 
	d="
M256.452820,248.290100 
	C257.192688,247.002228 258.227264,245.556259 259.613403,244.052856 
	C258.892487,245.374268 257.819977,246.753128 256.452820,248.290100 
z"/>
<path fill="#AF66F9" opacity="1.000000" stroke="none" 
	d="
M252.057556,146.359558 
	C252.194992,147.597946 252.168716,149.159836 251.867584,150.868439 
	C251.693115,149.571136 251.793472,148.127106 252.057556,146.359558 
z"/>
<path fill="#E057F8" opacity="1.000000" stroke="none" 
	d="
M328.689026,354.391479 
	C329.510590,353.368347 330.662201,352.267181 332.193542,351.181396 
	C331.388519,352.235657 330.203796,353.274567 328.689026,354.391479 
z"/>
<path fill="#C760FB" opacity="1.000000" stroke="none" 
	d="
M304.240906,369.663330 
	C305.143555,368.842957 306.371216,367.986633 307.946106,367.134583 
	C307.050873,367.968353 305.808380,368.797852 304.240906,369.663330 
z"/>
<path fill="#C760FB" opacity="1.000000" stroke="none" 
	d="
M294.137360,192.485962 
	C294.231018,191.539444 294.548645,190.403610 295.133667,189.131836 
	C295.054443,190.096161 294.707855,191.196411 294.137360,192.485962 
z"/>
<path fill="#AF66F9" opacity="1.000000" stroke="none" 
	d="
M276.877075,323.278656 
	C277.169830,323.020111 277.342255,323.018768 277.773010,323.029114 
	C277.480255,324.018005 276.929138,324.995178 276.115906,326.084961 
	C276.154755,325.310303 276.455750,324.423065 276.877075,323.278656 
z"/>
<path fill="#AF66F9" opacity="1.000000" stroke="none" 
	d="
M299.081848,246.728775 
	C298.775238,246.947083 298.585297,246.936447 298.113342,246.885681 
	C298.405426,245.984085 298.979553,245.122620 299.795776,244.198883 
	C299.758118,244.924347 299.478302,245.712082 299.081848,246.728775 
z"/>
<path fill="#AF66F9" opacity="1.000000" stroke="none" 
	d="
M283.983643,264.684265 
	C283.333923,265.295868 282.703979,265.598785 281.817535,265.945953 
	C282.208618,265.107239 282.856140,264.224243 283.763458,263.240784 
	C284.016632,263.552063 284.010010,263.963837 283.983643,264.684265 
z"/>
<path fill="#AF66F9" opacity="1.000000" stroke="none" 
	d="
M315.867249,220.760361 
	C315.520630,221.861954 315.007446,223.208176 314.233948,224.729401 
	C314.549347,223.604599 315.124969,222.304810 315.867249,220.760361 
z"/>
<path fill="#C760FB" opacity="1.000000" stroke="none" 
	d="
M331.517517,180.804321 
	C330.968353,180.099197 330.417572,179.097412 329.862000,177.783890 
	C330.410126,178.483994 330.963013,179.495834 331.517517,180.804321 
z"/>
<path fill="#AF66F9" opacity="1.000000" stroke="none" 
	d="
M294.780334,250.266968 
	C294.460052,251.048019 293.905914,251.895081 293.092224,252.819336 
	C293.403931,252.042007 293.975189,251.187469 294.780334,250.266968 
z"/>
<path fill="#C760FB" opacity="1.000000" stroke="none" 
	d="
M317.286621,280.835144 
	C317.526825,280.079437 318.054321,279.200836 318.881592,278.205688 
	C318.645508,278.963531 318.109711,279.837891 317.286621,280.835144 
z"/>
<path fill="#C760FB" opacity="1.000000" stroke="none" 
	d="
M288.505615,204.094635 
	C288.594818,203.247681 288.950287,202.220779 289.645966,201.097198 
	C289.581390,201.971893 289.176636,202.943283 288.505615,204.094635 
z"/>
<path fill="#AF66F9" opacity="1.000000" stroke="none" 
	d="
M309.814392,231.176193 
	C310.013367,231.600281 310.004730,232.056046 309.981323,232.741013 
	C309.668610,232.995956 309.372345,233.034851 308.854553,233.093079 
	C308.956482,232.468781 309.281647,231.838318 309.814392,231.176193 
z"/>
<path fill="#A06CFD" opacity="1.000000" stroke="none" 
	d="
M235.485199,274.130646 
	C235.589859,273.559662 235.966217,272.860138 236.657776,272.080200 
	C236.567642,272.667267 236.162277,273.334656 235.485199,274.130646 
z"/>
<path fill="#AF66F9" opacity="1.000000" stroke="none" 
	d="
M263.004883,238.372086 
	C263.419617,237.999603 263.837402,237.991898 264.568237,237.992981 
	C264.465698,238.655350 264.050140,239.308929 263.359253,240.077972 
	C263.058594,239.707901 263.033264,239.222382 263.004883,238.372086 
z"/>
<path fill="#AF66F9" opacity="1.000000" stroke="none" 
	d="
M303.749329,239.241486 
	C303.669708,239.752609 303.341644,240.345703 302.757019,241.019028 
	C302.833893,240.507324 303.167358,239.915375 303.749329,239.241486 
z"/>
<path fill="#976EFB" opacity="1.000000" stroke="none" 
	d="
M195.599060,374.416687 
	C196.210831,374.478516 197.006989,374.809082 197.941681,375.451355 
	C197.314606,375.403900 196.549026,375.044678 195.599060,374.416687 
z"/>
<path fill="#E057F8" opacity="1.000000" stroke="none" 
	d="
M329.689148,176.855896 
	C329.215179,176.872070 328.761963,176.643372 328.318359,176.150009 
	C328.542816,175.802902 328.717377,175.668289 328.851654,175.481476 
	C329.137726,175.857986 329.423828,176.234497 329.689148,176.855896 
z"/>
<path fill="#AF66F9" opacity="1.000000" stroke="none" 
	d="
M311.819672,228.186279 
	C311.803711,228.652161 311.575134,229.192169 311.132874,229.818573 
	C311.148499,229.356796 311.377777,228.808609 311.819672,228.186279 
z"/>
<path fill="#C760FB" opacity="1.000000" stroke="none" 
	d="
M328.833466,175.200317 
	C328.717377,175.668289 328.542816,175.802902 328.169525,175.938202 
	C327.957825,175.396500 327.904602,174.801910 327.846924,173.909775 
	C328.166748,174.047867 328.490997,174.483505 328.833466,175.200317 
z"/>
<path fill="#C760FB" opacity="1.000000" stroke="none" 
	d="
M312.998169,363.284973 
	C313.525452,363.034302 314.042969,363.044525 314.945404,363.102417 
	C314.708618,363.602264 314.086945,364.054474 313.178467,364.546570 
	C312.923889,364.239563 312.956146,363.892731 312.998169,363.284973 
z"/>
<path fill="#B965FD" opacity="1.000000" stroke="none" 
	d="
M268.637451,107.807877 
	C268.151215,107.628868 267.614777,107.181343 267.011047,106.466003 
	C267.491608,106.645241 268.039459,107.092300 268.637451,107.807877 
z"/>
<path fill="#976EFB" opacity="1.000000" stroke="none" 
	d="
M192.125824,372.278625 
	C192.513443,372.258240 193.061066,372.496460 193.770538,372.994568 
	C193.383545,373.015411 192.834686,372.776337 192.125824,372.278625 
z"/>
<path fill="#AF66F9" opacity="1.000000" stroke="none" 
	d="
M285.224854,315.211914 
	C285.225739,314.905457 285.449890,314.563904 285.872864,314.151733 
	C285.863831,314.446320 285.655975,314.811554 285.224854,315.211914 
z"/>
<path fill="#AF66F9" opacity="1.000000" stroke="none" 
	d="
M293.099670,306.950684 
	C293.009338,306.625214 293.190430,306.370483 293.613647,306.131714 
	C293.602081,306.372589 293.440491,306.663849 293.099670,306.950684 
z"/>
<path fill="#AF66F9" opacity="1.000000" stroke="none" 
	d="
M299.192627,300.832092 
	C299.005157,300.825745 299.016846,300.326385 299.059601,300.078552 
	C299.276611,299.865814 299.452545,299.886597 299.757141,299.931641 
	C299.716125,300.259644 299.548126,300.549042 299.192627,300.832092 
z"/>
<path fill="#AF66F9" opacity="1.000000" stroke="none" 
	d="
M301.188416,298.804993 
	C301.057404,298.472107 301.221802,298.232697 301.651611,298.040253 
	C301.654144,298.277405 301.509766,298.547821 301.188416,298.804993 
z"/>
<path fill="#C760FB" opacity="1.000000" stroke="none" 
	d="
M305.195496,294.572205 
	C305.157715,294.208649 305.391663,293.748932 305.850586,293.151978 
	C305.872742,293.501831 305.669983,293.988892 305.195496,294.572205 
z"/>
<path fill="#8873FD" opacity="1.000000" stroke="none" 
	d="
M190.854156,371.392334 
	C191.053482,371.292816 191.359482,371.454315 191.822479,371.825256 
	C191.639938,371.907562 191.300385,371.780457 190.854156,371.392334 
z"/>
<path fill="#C760FB" opacity="1.000000" stroke="none" 
	d="
M309.676880,338.552490 
	C309.737213,338.804657 309.474579,339.151093 308.895569,339.599609 
	C308.837433,339.350037 309.095642,338.998383 309.676880,338.552490 
z"/>
<path fill="#C760FB" opacity="1.000000" stroke="none" 
	d="
M311.478302,336.793304 
	C311.556793,337.046387 311.308258,337.405212 310.755066,337.907288 
	C310.684021,337.666687 310.917633,337.282837 311.478302,336.793304 
z"/>
<path fill="#C760FB" opacity="1.000000" stroke="none" 
	d="
M299.557556,347.692719 
	C299.630676,347.931885 299.406921,348.252380 298.900635,348.675995 
	C298.832275,348.444092 299.046448,348.109070 299.557556,347.692719 
z"/>
<path fill="#C760FB" opacity="1.000000" stroke="none" 
	d="
M312.673645,335.869873 
	C312.722229,336.148773 312.471832,336.401978 311.958313,336.724030 
	C311.921692,336.476654 312.148193,336.160400 312.673645,335.869873 
z"/>
<path fill="#8873FD" opacity="1.000000" stroke="none" 
	d="
M189.722900,370.552856 
	C189.923630,370.454773 190.265045,370.609528 190.751862,371.012573 
	C190.552704,371.109131 190.208145,370.957397 189.722900,370.552856 
z"/>
<path fill="#C760FB" opacity="1.000000" stroke="none" 
	d="
M308.400085,339.664551 
	C308.473053,339.902130 308.279327,340.202271 307.811096,340.554535 
	C307.735504,340.313477 307.934418,340.020264 308.400085,339.664551 
z"/>
<path fill="#C760FB" opacity="1.000000" stroke="none" 
	d="
M310.375488,366.043823 
	C310.440216,365.983521 310.397064,365.999695 310.407227,365.985291 
	C310.417358,365.970917 310.310730,366.104126 310.375488,366.043823 
z"/>
<path fill="#AF66F9" opacity="1.000000" stroke="none" 
	d="
M275.092529,327.437988 
	C274.978333,327.392548 275.081970,327.220734 275.110107,327.180084 
	C275.138275,327.139435 275.206696,327.483398 275.092529,327.437988 
z"/>
<path fill="#C760FB" opacity="1.000000" stroke="none" 
	d="
M312.465668,365.066467 
	C312.439392,365.135223 312.320007,365.109406 312.283264,365.128418 
	C312.246552,365.147430 312.491943,364.997681 312.465668,365.066467 
z"/>
<path fill="#976EFB" opacity="1.000000" stroke="none" 
	d="
M242.681747,84.854263 
	C242.516785,84.927628 242.294724,84.750618 242.058624,84.292671 
	C242.229767,84.234436 242.423111,84.431824 242.681747,84.854263 
z"/>
<path fill="#A06CFD" opacity="1.000000" stroke="none" 
	d="
M234.454163,275.491455 
	C234.350769,275.263245 234.548843,274.869873 235.023834,274.287231 
	C235.119049,274.507446 234.937347,274.916870 234.454163,275.491455 
z"/>
<path fill="#C760FB" opacity="1.000000" stroke="none" 
	d="
M290.389709,200.419861 
	C290.272369,200.229202 290.415009,199.843262 290.770447,199.232239 
	C290.872040,199.412964 290.760864,199.818787 290.389709,200.419861 
z"/>
<path fill="#C760FB" opacity="1.000000" stroke="none" 
	d="
M332.089233,181.662231 
	C332.209076,181.681656 332.255859,181.792847 332.302917,181.822067 
	C332.349976,181.851288 332.089355,181.872086 332.089355,181.872086 
	C332.089355,181.872086 331.969421,181.642822 332.089233,181.662231 
z"/>
<path fill="#AF66F9" opacity="1.000000" stroke="none" 
	d="
M307.810944,233.889084 
	C307.759979,233.864655 307.868469,233.755585 307.907104,233.746201 
	C307.945770,233.736816 307.861908,233.913513 307.810944,233.889084 
z"/>
<path fill="#AF66F9" opacity="1.000000" stroke="none" 
	d="
M306.754822,234.795135 
	C306.700043,234.723740 306.840576,234.625931 306.887634,234.588776 
	C306.934662,234.551636 306.809631,234.866531 306.754822,234.795135 
z"/>
<path fill="#AF66F9" opacity="1.000000" stroke="none" 
	d="
M265.503754,237.448151 
	C265.347351,237.217621 265.502777,236.819824 265.899353,236.205887 
	C266.032196,236.420120 265.923889,236.850510 265.503754,237.448151 
z"/>
<path fill="#AF66F9" opacity="1.000000" stroke="none" 
	d="
M305.887634,236.526154 
	C305.994995,236.575729 305.976166,236.741959 305.931091,236.747620 
	C305.886017,236.753281 305.780304,236.476578 305.887634,236.526154 
z"/>
<path fill="#AF66F9" opacity="1.000000" stroke="none" 
	d="
M301.940582,241.709351 
	C301.973846,241.777420 301.940643,241.673386 301.967346,241.652817 
	C301.994049,241.632248 301.907318,241.641266 301.940582,241.709351 
z"/>
<path fill="#AF66F9" opacity="1.000000" stroke="none" 
	d="
M291.654633,253.869934 
	C291.647675,253.814728 291.784729,253.832657 291.820587,253.836975 
	C291.856445,253.841278 291.661591,253.925125 291.654633,253.869934 
z"/>
<path fill="#8075FC" opacity="1.000000" stroke="none" 
	d="
M162.409515,260.723846 
	C162.763748,260.965485 162.681091,261.220642 162.212799,261.329590 
	C162.062729,261.290253 162.208221,260.844269 162.409515,260.723846 
z"/>
<path fill="#AF66F9" opacity="1.000000" stroke="none" 
	d="
M284.703339,261.826965 
	C284.681335,261.719482 284.794952,261.662231 284.807098,261.612427 
	C284.819244,261.562592 284.725342,261.934448 284.703339,261.826965 
z"/>
<path fill="#A06CFD" opacity="1.000000" stroke="none" 
	d="
M239.858551,268.148590 
	C239.830048,268.134094 239.872513,268.141754 239.890381,268.152771 
	C239.908264,268.163818 240.009201,268.240082 239.972672,268.181061 
	C239.936142,268.122040 239.887070,268.163086 239.858551,268.148590 
z"/>
<path fill="#E057F8" opacity="1.000000" stroke="none" 
	d="
M326.839417,321.055756 
	C327.043762,321.000854 327.213379,321.408325 327.213379,321.408325 
	C327.213379,321.408325 326.873199,321.632629 326.717285,321.579987 
	C326.561340,321.527344 326.635071,321.110657 326.839417,321.055756 
z"/>
<path fill="#C760FB" opacity="1.000000" stroke="none" 
	d="
M309.206726,290.123108 
	C309.252716,290.114166 309.171265,290.220642 309.137817,290.229004 
	C309.104401,290.237396 309.160706,290.132019 309.206726,290.123108 
z"/>
<path fill="#C760FB" opacity="1.000000" stroke="none" 
	d="
M307.326721,292.092041 
	C307.272034,291.813477 307.525848,291.554321 308.039185,291.203796 
	C308.077576,291.445404 307.856415,291.778412 307.326721,292.092041 
z"/>
<path fill="#AF66F9" opacity="1.000000" stroke="none" 
	d="
M298.291138,302.182648 
	C298.359070,302.219604 298.195679,302.336090 298.147400,302.372437 
	C298.099091,302.408752 298.223175,302.145691 298.291138,302.182648 
z"/>
<path fill="#AF66F9" opacity="1.000000" stroke="none" 
	d="
M297.476990,303.154541 
	C297.534790,303.114380 297.315918,303.236389 297.269958,303.276337 
	C297.224030,303.316284 297.419220,303.194733 297.476990,303.154541 
z"/>
<path fill="#AF66F9" opacity="1.000000" stroke="none" 
	d="
M292.340942,308.204590 
	C292.401825,308.248962 292.205750,308.259247 292.177063,308.299133 
	C292.148407,308.339020 292.280060,308.160187 292.340942,308.204590 
z"/>
<path fill="#AF66F9" opacity="1.000000" stroke="none" 
	d="
M290.289612,310.199402 
	C290.275696,310.285828 290.175354,310.347565 290.144806,310.392700 
	C290.114258,310.437836 290.303497,310.112976 290.289612,310.199402 
z"/>
<path fill="#AF66F9" opacity="1.000000" stroke="none" 
	d="
M288.213562,312.177490 
	C288.271271,312.212402 288.167236,312.326721 288.148743,312.368347 
	C288.130249,312.410004 288.155853,312.142548 288.213562,312.177490 
z"/>
<path fill="#AF66F9" opacity="1.000000" stroke="none" 
	d="
M287.335449,313.126526 
	C287.311951,313.198914 287.200378,313.191772 287.169556,313.212891 
	C287.138763,313.233978 287.358917,313.054138 287.335449,313.126526 
z"/>
<path fill="#AF66F9" opacity="1.000000" stroke="none" 
	d="
M283.453064,317.154297 
	C283.373444,316.949188 283.552002,316.650391 283.969360,316.235840 
	C284.042542,316.433624 283.876923,316.747131 283.453064,317.154297 
z"/>
<path fill="#AF66F9" opacity="1.000000" stroke="none" 
	d="
M282.344971,318.128235 
	C282.283936,317.853912 282.514282,317.599640 282.994812,317.269653 
	C283.042114,317.512054 282.839233,317.830139 282.344971,318.128235 
z"/>
<path fill="#AF66F9" opacity="1.000000" stroke="none" 
	d="
M279.207855,321.377380 
	C279.130402,321.331818 279.233368,321.176422 279.275940,321.158203 
	C279.318542,321.139984 279.285309,321.422943 279.207855,321.377380 
z"/>
</svg>